<?xml version="1.0" standalone="no"?>
<!DOCTYPE svg PUBLIC "-//W3C//DTD SVG 20010904//EN"
 "http://www.w3.org/TR/2001/REC-SVG-20010904/DTD/svg10.dtd">
<svg version="1.0" xmlns="http://www.w3.org/2000/svg"
 width="16.000000pt" height="16.000000pt" viewBox="0 0 16.000000 16.000000"
 preserveAspectRatio="xMidYMid meet">
<metadata>
Created by potrace 1.11, written by Peter Selinger 2001-2013
</metadata>
<g transform="translate(0.000000,16.000000) scale(0.006015,-0.006015)"
fill="#000000" stroke="none">
<path d="M470 2624 c5 -21 26 -84 46 -139 103 -283 166 -507 215 -760 12 -62
28 -119 38 -130 38 -44 46 -61 18 -35 l-28 24 6 -34 c3 -19 7 -46 10 -60 2
-14 7 -45 10 -70 5 -45 15 -112 20 -140 2 -8 6 -42 10 -75 8 -70 23 -153 29
-164 3 -4 8 -22 11 -40 17 -97 124 -270 238 -384 42 -43 77 -86 78 -95 7 -110
-10 -215 -37 -230 -13 -7 -11 -17 12 -63 15 -30 42 -91 58 -136 32 -86 52
-103 50 -43 -2 54 -14 221 -19 265 -2 22 -7 74 -10 115 -3 41 -8 82 -10 90 -3
9 11 48 30 88 19 40 34 75 34 77 0 4 20 99 27 128 1 4 2 13 3 21 1 11 19 14
75 15 l74 1 60 -93 c32 -50 72 -114 87 -142 16 -27 36 -59 46 -70 9 -11 37
-58 61 -105 53 -102 169 -280 183 -281 13 -1 242 -1 281 0 30 1 31 2 33 51 1
28 -2 50 -6 51 -5 0 -32 1 -60 3 -29 1 -55 4 -57 7 -4 4 -111 187 -136 231
-33 61 -166 276 -192 312 -15 22 -26 41 -24 43 2 2 32 11 67 20 80 20 133 46
174 86 85 84 117 183 111 347 -4 112 -7 126 -32 203 -17 52 -96 148 -147 180
-36 22 -125 52 -202 68 -37 7 -165 13 -334 14 -262 1 -274 1 -279 -18 -4 -14
-14 -2 -42 50 -20 37 -50 91 -66 118 -31 51 -34 57 -34 74 0 5 -6 16 -14 24
-8 8 -22 29 -30 48 -9 19 -31 54 -49 79 -18 25 -62 88 -98 140 -36 52 -72 104
-81 115 -9 11 -52 63 -95 115 -43 52 -88 106 -100 119 l-22 24 9 -39z m1233
-1058 c104 -50 148 -140 143 -291 -4 -158 -56 -219 -201 -242 -62 -9 -308 -9
-328 0 -11 5 -24 4 -33 -4 -20 -16 -18 5 2 25 12 12 14 27 9 59 -10 66 -44
197 -65 254 -11 29 -22 68 -25 85 -5 32 -27 94 -46 131 -9 17 3 17 239 14 249
-3 249 -3 305 -31z"/>
</g>
</svg>
